<svg width="20" height="20" viewBox="0 0 20 20" fill="none" xmlns="http://www.w3.org/2000/svg">
<g clip-path="url(#clip0_3333_453)">
<path d="M5.919 14.4615C6.00307 14.5223 6.09879 14.5665 6.20066 14.5917C6.30252 14.6168 6.40856 14.6224 6.51267 14.6082C6.6168 14.5938 6.71697 14.5599 6.80745 14.5084C6.89793 14.4568 6.97696 14.3887 7.04 14.3077C7.52437 13.6868 8.15244 13.1827 8.8745 12.8356C9.5965 12.4884 10.3927 12.3077 11.2 12.3077C12.0072 12.3077 12.8035 12.4884 13.5255 12.8356C14.2476 13.1827 14.8757 13.6868 15.36 14.3077C15.423 14.3885 15.502 14.4566 15.5924 14.5081C15.6828 14.5595 15.7828 14.5933 15.8868 14.6077C15.9908 14.6219 16.0967 14.6164 16.1986 14.5913C16.3003 14.5662 16.3959 14.5222 16.48 14.4615C16.5641 14.4009 16.6348 14.325 16.6884 14.2381C16.7419 14.1512 16.7771 14.0549 16.792 13.9549C16.8068 13.8549 16.8011 13.7531 16.775 13.6552C16.7489 13.5574 16.703 13.4654 16.64 13.3846C15.9316 12.4714 14.987 11.7524 13.9 11.299C14.4957 10.7761 14.913 10.0922 15.0972 9.33708C15.2815 8.582 15.224 7.79102 14.9323 7.06791C14.6407 6.34479 14.1285 5.72336 13.4629 5.28517C12.7974 4.84697 12.0096 4.61249 11.203 4.61249C10.3964 4.61249 9.60858 4.84697 8.94308 5.28517C8.27753 5.72336 7.76532 6.34479 7.47365 7.06791C7.18199 7.79102 7.1245 8.582 7.30873 9.33708C7.49297 10.0922 7.91031 10.7761 8.506 11.299C7.41683 11.7515 6.47004 12.4706 5.76 13.3846C5.63259 13.5477 5.57777 13.7528 5.60758 13.9548C5.6374 14.1567 5.74942 14.339 5.919 14.4615ZM8.8 8.4615C8.8 8.00512 8.94075 7.55895 9.2045 7.17945C9.46817 6.79996 9.843 6.50417 10.2816 6.32951C10.7201 6.15484 11.2027 6.10914 11.6682 6.19819C12.1337 6.28723 12.5614 6.50702 12.8971 6.82975C13.2327 7.15249 13.4612 7.56368 13.5539 8.01133C13.6465 8.459 13.599 8.923 13.4173 9.34467C13.2357 9.76633 12.9281 10.1267 12.5333 10.3803C12.1387 10.6339 11.6747 10.7693 11.2 10.7693C10.5635 10.7693 9.953 10.5261 9.50292 10.0933C9.05283 9.66058 8.8 9.07358 8.8 8.4615ZM18.4 0H4C3.57565 0 3.16868 0.162088 2.86862 0.450605C2.56857 0.739122 2.4 1.13043 2.4 1.53846V3.84615H0.8C0.587827 3.84615 0.384343 3.9272 0.234314 4.07146C0.0842858 4.21572 0 4.41137 0 4.61538C0 4.8194 0.0842858 5.01505 0.234314 5.15932C0.384343 5.30358 0.587827 5.38462 0.8 5.38462H2.4V9.23075H0.8C0.587827 9.23075 0.384343 9.31183 0.234314 9.45608C0.0842858 9.60033 0 9.796 0 10C0 10.204 0.0842858 10.3997 0.234314 10.5439C0.384343 10.6882 0.587827 10.7693 0.8 10.7693H2.4V14.6154H0.8C0.587827 14.6154 0.384343 14.6964 0.234314 14.8407C0.0842858 14.9849 0 15.1806 0 15.3846C0 15.5887 0.0842858 15.7842 0.234314 15.9286C0.384343 16.0728 0.587827 16.1538 0.8 16.1538H2.4V18.4615C2.4 18.8696 2.56857 19.2609 2.86862 19.5494C3.16868 19.8379 3.57565 20 4 20H18.4C18.8243 20 19.2313 19.8379 19.5313 19.5494C19.8314 19.2609 20 18.8696 20 18.4615V1.53846C20 1.13043 19.8314 0.739122 19.5313 0.450605C19.2313 0.162088 18.8243 0 18.4 0ZM18.4 18.4615H4V1.53846H18.4V18.4615Z" fill="white"/>
</g>
<defs>
<clipPath id="clip0_3333_453">
<rect width="20" height="20" fill="white"/>
</clipPath>
</defs>
</svg>
