    <svg
                                                        xmlns="http://www.w3.org/2000/svg"
                                                        width="36"
                                                        height="36"
                                                        viewBox="0 0 36 36"
                                                        fill="none">
                                                        <path
                                                            fillRule="evenodd"
                                                            clipRule="evenodd"
                                                            d="M21.0423 3.5288L23.1148 5.65301L26.0806 5.61701C26.6472 5.61037 27.2095 5.71706 27.7343 5.93078C28.2592 6.14451 28.736 6.46097 29.1368 6.86158C29.5376 7.26219 29.8544 7.73886 30.0684 8.26359C30.2824 8.78832 30.3893 9.35053 30.383 9.91719L30.347 12.8875L32.4712 14.9577C32.8767 15.3538 33.199 15.827 33.419 16.3495C33.639 16.8719 33.7523 17.4331 33.7523 18C33.7523 18.5669 33.639 19.1281 33.419 19.6505C33.199 20.173 32.8767 20.6462 32.4712 21.0423L30.347 23.1148L30.383 26.0806C30.3896 26.6472 30.2829 27.2095 30.0692 27.7343C29.8555 28.2592 29.539 28.736 29.1384 29.1368C28.7378 29.5376 28.2611 29.8544 27.7364 30.0684C27.2117 30.2824 26.6495 30.3893 26.0828 30.383L23.1125 30.347L21.0423 32.4712C20.6462 32.8767 20.173 33.199 19.6505 33.419C19.1281 33.639 18.5669 33.7523 18 33.7523C17.4331 33.7523 16.8719 33.639 16.3495 33.419C15.827 33.199 15.3538 32.8767 14.9577 32.4712L12.8852 30.347L9.91944 30.383C9.35279 30.3896 8.79052 30.2829 8.26568 30.0692C7.74083 29.8555 7.264 29.539 6.86318 29.1384C6.46236 28.7378 6.14565 28.2611 5.93165 27.7364C5.71765 27.2117 5.61067 26.6495 5.61701 26.0828L5.65301 23.1125L3.5288 21.0423C3.12327 20.6462 2.80104 20.173 2.58103 19.6505C2.36103 19.1281 2.2477 18.5669 2.2477 18C2.2477 17.4331 2.36103 16.8719 2.58103 16.3495C2.80104 15.827 3.12327 15.3538 3.5288 14.9577L5.65301 12.8852L5.61701 9.91944C5.61037 9.35279 5.71706 8.79052 5.93078 8.26568C6.14451 7.74083 6.46097 7.264 6.86158 6.86318C7.26219 6.46236 7.73886 6.14565 8.26359 5.93165C8.78832 5.71765 9.35053 5.61067 9.91719 5.61701L12.8875 5.65301L14.9577 3.5288C15.3538 3.12327 15.827 2.80104 16.3495 2.58103C16.8719 2.36103 17.4331 2.2477 18 2.2477C18.5669 2.2477 19.1281 2.36103 19.6505 2.58103C20.173 2.80104 20.6462 3.12327 21.0423 3.5288ZM24.0509 3.39153L22.6512 1.95814C22.0455 1.33829 21.3221 0.845761 20.5233 0.509492C19.7246 0.173224 18.8666 0 18 0C17.1334 0 16.2755 0.173224 15.4767 0.509492C14.678 0.845761 13.9545 1.33829 13.3488 1.95814L11.9491 3.38928L9.94644 3.36678C9.07954 3.35652 8.21934 3.5197 7.41643 3.84673C6.61351 4.17375 5.88409 4.65802 5.27105 5.27105C4.65802 5.88409 4.17375 6.61351 3.84673 7.41643C3.5197 8.21934 3.35652 9.07954 3.36678 9.94644L3.39153 11.9491L1.95814 13.3488C1.33829 13.9545 0.845761 14.678 0.509492 15.4767C0.173224 16.2755 0 17.1334 0 18C0 18.8666 0.173224 19.7246 0.509492 20.5233C0.845761 21.3221 1.33829 22.0455 1.95814 22.6512L3.38928 24.0509L3.36678 26.0536C3.35652 26.9205 3.5197 27.7807 3.84673 28.5836C4.17375 29.3865 4.65802 30.1159 5.27105 30.729C5.88409 31.342 6.61351 31.8263 7.41643 32.1533C8.21934 32.4803 9.07954 32.6435 9.94644 32.6332L11.9491 32.6085L13.3488 34.0419C13.9545 34.6617 14.678 35.1542 15.4767 35.4905C16.2755 35.8268 17.1334 36 18 36C18.8666 36 19.7246 35.8268 20.5233 35.4905C21.3221 35.1542 22.0455 34.6617 22.6512 34.0419L24.0509 32.6107L26.0536 32.6332C26.9205 32.6435 27.7807 32.4803 28.5836 32.1533C29.3865 31.8263 30.1159 31.342 30.729 30.729C31.342 30.1159 31.8263 29.3865 32.1533 28.5836C32.4803 27.7807 32.6435 26.9205 32.6332 26.0536L32.6085 24.0509L34.0419 22.6512C34.6617 22.0455 35.1542 21.3221 35.4905 20.5233C35.8268 19.7246 36 18.8666 36 18C36 17.1334 35.8268 16.2755 35.4905 15.4767C35.1542 14.678 34.6617 13.9545 34.0419 13.3488L32.6107 11.9491L32.6332 9.94644C32.6435 9.07954 32.4803 8.21934 32.1533 7.41643C31.8263 6.61351 31.342 5.88409 30.729 5.27105C30.1159 4.65802 29.3865 4.17375 28.5836 3.84673C27.7807 3.5197 26.9205 3.35652 26.0536 3.36678L24.0509 3.39153ZM23.5416 14.1934C23.4848 14.0567 23.4017 13.9326 23.2969 13.8281C23.1924 13.7233 23.0683 13.6402 22.9316 13.5834C22.7949 13.5267 22.6483 13.4975 22.5004 13.4975C22.3524 13.4975 22.2058 13.5267 22.0691 13.5834C21.9324 13.6402 21.8083 13.7233 21.7038 13.8281L15.7497 19.7844L13.1709 17.2034C13.0663 17.0988 12.9421 17.0158 12.8054 16.9592C12.6688 16.9026 12.5223 16.8735 12.3743 16.8735C12.2264 16.8735 12.0799 16.9026 11.9432 16.9592C11.8066 17.0158 11.6824 17.0988 11.5778 17.2034C11.4731 17.308 11.3902 17.4322 11.3336 17.5689C11.2769 17.7056 11.2478 17.8521 11.2478 18C11.2478 18.1479 11.2769 18.2944 11.3336 18.4311C11.3902 18.5678 11.4731 18.692 11.5778 18.7966L14.9531 22.1719C15.0576 22.2767 15.1818 22.3598 15.3185 22.4165C15.4551 22.4733 15.6017 22.5025 15.7497 22.5025C15.8977 22.5025 16.0442 22.4733 16.1809 22.4165C16.3176 22.3598 16.4417 22.2767 16.5463 22.1719L23.2969 15.4212C23.4017 15.3167 23.4848 15.1926 23.5416 15.0559C23.5983 14.9192 23.6275 14.7726 23.6275 14.6247C23.6275 14.4767 23.5983 14.3301 23.5416 14.1934Z"
                                                            fill="#00B2D9"
                                                        />
                                                    </svg>