<svg width="20" height="14" viewBox="0 0 20 14" fill="none" xmlns="http://www.w3.org/2000/svg">
<g clip-path="url(#clip0_3333_457)">
<path d="M16 9.33333H14V10.8889H16M16 6.22222H14V7.77778H16M18 12.4444H10V10.8889H12V9.33333H10V7.77778H12V6.22222H10V4.66667H18M8 3.11111H6V1.55556H8M8 6.22222H6V4.66667H8M8 9.33333H6V7.77778H8M8 12.4444H6V10.8889H8M4 3.11111H2V1.55556H4M4 6.22222H2V4.66667H4M4 9.33333H2V7.77778H4M4 12.4444H2V10.8889H4M10 3.11111V0H0V14H20V3.11111H10Z" fill="white"/>
</g>
<defs>
<clipPath id="clip0_3333_457">
<rect width="20" height="14" fill="white"/>
</clipPath>
</defs>
</svg>
