<svg width="20" height="20" viewBox="0 0 20 20" fill="none" xmlns="http://www.w3.org/2000/svg">
<g clip-path="url(#clip0_3337_363)">
<path d="M19.7438 6.99391L16.875 4.89391V3.12516C16.875 2.9594 16.8092 2.80043 16.6919 2.68322C16.5747 2.56601 16.4158 2.50016 16.25 2.50016H13.6125L10.3688 0.118908C10.2617 0.0406905 10.1326 -0.00146484 10 -0.00146484C9.86743 -0.00146484 9.73829 0.0406905 9.63125 0.118908L6.3875 2.50016H3.75C3.58424 2.50016 3.42527 2.56601 3.30806 2.68322C3.19085 2.80043 3.125 2.9594 3.125 3.12516V4.89391L0.256252 6.99391C0.176629 7.05209 0.111903 7.12829 0.0673667 7.21628C0.0228301 7.30427 -0.000253737 7.40154 2.10363e-06 7.50016V18.1252C2.10363e-06 18.6224 0.197546 19.0994 0.549177 19.451C0.900808 19.8026 1.37772 20.0002 1.875 20.0002H18.125C18.6223 20.0002 19.0992 19.8026 19.4508 19.451C19.8025 19.0994 20 18.6224 20 18.1252V7.50016C20.0003 7.40154 19.9772 7.30427 19.9326 7.21628C19.8881 7.12829 19.8234 7.05209 19.7438 6.99391ZM16.875 6.44391L18.25 7.45016L16.875 8.26891V6.44391ZM10 1.40016L11.5 2.50016H8.5L10 1.40016ZM4.375 3.75016H15.625V9.01891L10 12.3939L4.375 9.01891V3.75016ZM3.125 6.44391V8.27516L1.75 7.45016L3.125 6.44391ZM18.75 18.1252C18.75 18.2909 18.6842 18.4499 18.5669 18.5671C18.4497 18.6843 18.2908 18.7502 18.125 18.7502H1.875C1.70924 18.7502 1.55027 18.6843 1.43306 18.5671C1.31585 18.4499 1.25 18.2909 1.25 18.1252V8.60641L9.68125 13.6627C9.77626 13.7175 9.88404 13.7464 9.99375 13.7464C10.1035 13.7464 10.2112 13.7175 10.3063 13.6627L18.75 8.60641V18.1252Z" fill="white"/>
</g>
<defs>
<clipPath id="clip0_3337_363">
<rect width="20" height="20" fill="white"/>
</clipPath>
</defs>
</svg>
