<svg width="18" height="16" viewBox="0 0 18 16" fill="none" xmlns="http://www.w3.org/2000/svg">
<path d="M2.36842 16C1.71032 16 1.15137 15.7513 0.691579 15.2539C0.230526 14.7578 0 14.1548 0 13.4447V6.29002C0 5.58 0.230526 4.97696 0.691579 4.4809C1.15074 3.98348 1.70968 3.73476 2.36842 3.73476C2.75811 3.73476 3.11558 3.82846 3.44084 4.01584C3.76611 4.20323 4.04463 4.45024 4.27642 4.75687H5.68421V0H14.2105V4.75687H15.6316C16.2897 4.75687 16.8486 5.00558 17.3084 5.503C17.7695 5.99906 18 6.6021 18 7.31213V14.9779H4.27642C4.044 15.2845 3.76547 15.5315 3.44084 15.7189C3.11621 15.9063 2.75874 16 2.36842 16ZM2.36842 14.9779C2.75811 14.9779 3.09253 14.8276 3.37168 14.5272C3.65021 14.226 3.78947 13.8652 3.78947 13.4447V6.29002C3.78947 5.8696 3.65021 5.50879 3.37168 5.20761C3.09253 4.90712 2.75811 4.75687 2.36842 4.75687C1.97874 4.75687 1.64432 4.90712 1.36516 5.20761C1.08663 5.50879 0.947368 5.8696 0.947368 6.29002V13.4447C0.947368 13.8652 1.08663 14.226 1.36516 14.5272C1.64432 14.8276 1.97874 14.9779 2.36842 14.9779ZM6.63158 4.75687H13.2632V1.0221H6.63158V4.75687ZM4.73684 13.9558H17.0526V7.31213C17.0526 6.8917 16.9134 6.5309 16.6348 6.22972C16.3557 5.92922 16.0213 5.77897 15.6316 5.77897H4.73684V13.9558ZM11.8421 9.35633C12.1105 9.35633 12.3357 9.25821 12.5176 9.06197C12.6995 8.86572 12.7901 8.62314 12.7895 8.33423C12.7888 8.04531 12.6979 7.80273 12.5166 7.60649C12.3354 7.41025 12.1105 7.31213 11.8421 7.31213C11.5737 7.31213 11.3488 7.41025 11.1676 7.60649C10.9863 7.80273 10.8954 8.04531 10.8947 8.33423C10.8941 8.62314 10.9851 8.86606 11.1676 9.06299C11.3501 9.25991 11.5749 9.35769 11.8421 9.35633ZM14.6842 9.35633C14.9526 9.35633 15.1778 9.25821 15.3597 9.06197C15.5416 8.86572 15.6322 8.62314 15.6316 8.33423C15.6309 8.04531 15.54 7.80273 15.3587 7.60649C15.1775 7.41025 14.9526 7.31213 14.6842 7.31213C14.4158 7.31213 14.1909 7.41025 14.0097 7.60649C13.8284 7.80273 13.7375 8.04531 13.7368 8.33423C13.7362 8.62314 13.8272 8.86606 14.0097 9.06299C14.1922 9.25991 14.4171 9.35769 14.6842 9.35633ZM11.8421 12.4226C12.1105 12.4226 12.3357 12.3245 12.5176 12.1283C12.6995 11.932 12.7901 11.6895 12.7895 11.4005C12.7888 11.1116 12.6979 10.869 12.5166 10.6728C12.3354 10.4766 12.1105 10.3784 11.8421 10.3784C11.5737 10.3784 11.3488 10.4766 11.1676 10.6728C10.9863 10.869 10.8954 11.1116 10.8947 11.4005C10.8941 11.6895 10.9851 11.9324 11.1676 12.1293C11.3501 12.3262 11.5749 12.424 11.8421 12.4226ZM14.6842 12.4226C14.9526 12.4226 15.1778 12.3245 15.3597 12.1283C15.5416 11.932 15.6322 11.6895 15.6316 11.4005C15.6309 11.1116 15.54 10.869 15.3587 10.6728C15.1775 10.4766 14.9526 10.3784 14.6842 10.3784C14.4158 10.3784 14.1909 10.4766 14.0097 10.6728C13.8284 10.869 13.7375 11.1116 13.7368 11.4005C13.7362 11.6895 13.8272 11.9324 14.0097 12.1293C14.1922 12.3262 14.4171 12.424 14.6842 12.4226ZM6.15789 12.4226H9.94737V7.31213H6.15789V12.4226Z" fill="white"/>
</svg>
