  <svg
xmlns="http://www.w3.org/2000/svg"
width="16"
height="16"
viewBox="0 0 16 16"
fill="none">
<path
fillRule="evenodd"
clipRule="evenodd"
d="M4.89104 5.66436C5.10112 5.00339 5.46669 4.40247 5.95706 3.91202L8.59904 1.27005C9.41223 0.45685 10.5152 0 11.6652 0C12.8152 0 13.9182 0.45685 14.7314 1.27005C15.5446 2.08324 16.0014 3.18618 16.0014 4.33621C16.0014 5.48625 15.5446 6.58918 14.7314 7.40238L12.7484 9.3853C12.7875 8.76094 12.7253 8.13224 12.5634 7.52522L13.7096 6.38056C14.2519 5.83817 14.5566 5.10254 14.5566 4.33549C14.5566 3.56844 14.2519 2.8328 13.7096 2.29042C13.1672 1.74803 12.4315 1.44332 11.6645 1.44332C10.8974 1.44332 10.1618 1.74803 9.61941 2.29042L6.97888 4.93239C6.62011 5.29112 6.36208 5.73796 6.23072 6.22801C6.09936 6.71806 6.09929 7.23405 6.23053 7.72413C6.36176 8.21421 6.61967 8.66111 6.97835 9.01994C7.33702 9.37876 7.78382 9.63686 8.27385 9.7683L7.15376 10.8898C6.52798 10.5908 5.98308 10.146 5.56477 9.59284C5.14646 9.03964 4.86696 8.39417 4.74973 7.7106C4.6325 7.02704 4.68096 6.32532 4.89104 5.66436ZM1.27005 8.59763L3.25297 6.6147C3.21379 7.24065 3.27626 7.86736 3.43797 8.47333L2.29186 9.618C1.74947 10.1604 1.44476 10.896 1.44476 11.6631C1.44476 12.4301 1.74947 13.1658 2.29186 13.7081C2.83425 14.2505 3.56988 14.5552 4.33693 14.5552C5.10399 14.5552 5.83962 14.2505 6.38201 13.7081L9.02254 11.0662C9.37842 10.7106 9.63535 10.2683 9.76791 9.78303C9.90048 9.29775 9.9041 8.78626 9.77842 8.29915C9.65274 7.81203 9.4021 7.36616 9.05129 7.00559C8.70048 6.64502 8.26163 6.38226 7.77815 6.24326C7.83996 6.13842 7.91474 6.04179 8.00072 5.95565L8.84766 5.10872C9.47343 5.40774 10.0183 5.85252 10.4366 6.40572C10.855 6.95892 11.1344 7.60439 11.2517 8.28795C11.3689 8.97152 11.3205 9.67324 11.1104 10.3342C10.9003 10.9952 10.5347 11.5961 10.0443 12.0865L7.40238 14.73C6.58918 15.5432 5.48625 16 4.33621 16C3.18618 16 2.08324 15.5432 1.27005 14.73C0.456849 13.9168 0 12.8138 0 11.6638C0 10.5138 0.456849 9.41082 1.27005 8.59763Z"
fill="#B5B5B5"
/>
</svg>