<svg width="20" height="20" viewBox="0 0 20 20" fill="none" xmlns="http://www.w3.org/2000/svg">
<path d="M13.0886 8.69285C13.0886 8.69285 12.6264 8.15691 12.3089 8.15691H12.0449V6.92285C12.0449 6.57785 11.7649 6.29785 11.4199 6.29785C11.0749 6.29785 10.7949 6.57785 10.7949 6.92285V8.15691H9.20582V6.92285C9.20582 6.57785 8.92582 6.29785 8.58082 6.29785C8.23582 6.29785 7.95582 6.57785 7.95582 6.92285V8.15691H7.69113C7.37363 8.15691 6.91176 8.69285 6.91176 8.69285L3.49238 11.8854C3.36145 12.0079 3.25488 12.2313 3.25488 12.3847V12.6622V16.3294C3.25488 16.9632 3.76926 17.4772 4.40301 17.4772H15.5977C16.2314 17.4772 16.7455 16.9632 16.7455 16.3294V12.6622C16.7455 12.6622 16.7455 12.5385 16.7455 12.3847C16.7455 12.2316 16.6389 12.0079 16.508 11.8854L13.0886 8.69285ZM15.183 15.9147H4.81738V12.786L7.97801 9.83504L8.03332 9.78473L8.08863 9.72066C8.08895 9.72035 8.08926 9.72004 8.08957 9.71941H11.9105L11.9605 9.77723L12.0221 9.83473L15.1827 12.7857L15.183 15.9147Z" fill="white"/>
<path d="M12.5396 2.52295H7.46027C4.87184 2.52295 2.77246 4.62232 2.77246 7.21139V7.83764C2.77246 8.0142 2.91559 8.15701 3.09246 8.15701H5.9709C6.40246 8.15701 6.75246 7.80764 6.75246 7.37576V5.76545C6.75246 5.3342 7.10215 4.9842 7.53371 4.9842H12.4659C12.8975 4.9842 13.2475 5.3342 13.2475 5.76545V7.37576C13.2475 7.80764 13.5971 8.15701 14.0287 8.15701H16.9078C17.0843 8.15701 17.2271 8.0142 17.2271 7.83764V7.21139C17.2275 4.62232 15.1287 2.52295 12.5396 2.52295Z" fill="white"/>
<path d="M9.99975 10.5122C8.68287 10.5122 7.61475 11.5803 7.61475 12.8972C7.61475 14.2144 8.68287 15.2822 9.99975 15.2822C11.3169 15.2822 12.3847 14.2144 12.3847 12.8972C12.3847 11.5803 11.3169 10.5122 9.99975 10.5122ZM9.99975 13.4794C9.67818 13.4794 9.41756 13.2188 9.41756 12.8972C9.41756 12.5756 9.67818 12.315 9.99975 12.315C10.3213 12.315 10.5819 12.5756 10.5819 12.8972C10.5819 13.2188 10.3213 13.4794 9.99975 13.4794Z" fill="white"/>
</svg>
