<svg width="32" height="32" viewBox="0 0 32 32" fill="none" xmlns="http://www.w3.org/2000/svg">
<path fill-rule="evenodd" clip-rule="evenodd" d="M13.5372 16.8014C13.2787 16.7066 13.0116 16.6721 12.7445 16.6635C11.9001 16.6549 11.0644 16.6635 10.22 16.6635C10.2114 16.6635 10.2028 16.6635 10.1855 16.6635C10.1855 17.6371 10.1855 18.6107 10.1855 19.593C10.2114 19.593 10.2286 19.593 10.2459 19.593C11.0213 19.593 11.7881 19.6016 12.5636 19.593C12.7962 19.593 13.0375 19.5671 13.2615 19.524C13.8129 19.412 14.1662 19.076 14.2954 18.5246C14.3471 18.3178 14.3557 18.111 14.3471 17.9042C14.3213 17.37 14.0369 16.9737 13.5372 16.8014Z" fill="#3863AE"/>
<path fill-rule="evenodd" clip-rule="evenodd" d="M12.5808 14.8283C12.9341 14.8283 13.2873 14.7679 13.6061 14.5956C13.8474 14.475 13.9938 14.2768 14.0714 14.0184C14.1317 13.8029 14.1403 13.5789 14.1058 13.3549C14.0542 12.9327 13.8129 12.6484 13.4079 12.5364C13.0461 12.4416 12.6842 12.4071 12.3137 12.4071C11.6244 12.3985 10.9438 12.4071 10.2545 12.4071C10.2286 12.4071 10.2114 12.4071 10.1855 12.4071C10.1855 13.2171 10.1855 14.027 10.1855 14.8369C10.2028 14.8369 10.22 14.8369 10.2286 14.8369C11.0127 14.8283 11.7967 14.8369 12.5808 14.8283Z" fill="#3863AE"/>
<path fill-rule="evenodd" clip-rule="evenodd" d="M23.1784 16.1724C23.075 15.5693 22.7476 15.1299 22.179 14.8972C21.8774 14.7766 21.5672 14.7508 21.2571 14.768C20.6022 14.8111 20.1284 15.1299 19.8613 15.733C19.7923 15.8881 19.7492 16.069 19.6976 16.2327C19.6803 16.293 19.6717 16.362 19.6631 16.4309C20.8521 16.4309 22.0325 16.4309 23.2129 16.4309C23.2129 16.4137 23.2129 16.405 23.2129 16.3964C23.1957 16.3189 23.187 16.25 23.1784 16.1724Z" fill="#3863AE"/>
<path fill-rule="evenodd" clip-rule="evenodd" d="M31.2171 11.0544C29.0717 4.46311 22.9285 0 16.0012 0C9.07389 0 2.93065 4.46311 0.785257 11.0544C-1.36014 17.6457 0.992042 24.8659 6.60109 28.9413C12.2101 33.0167 19.8009 33.0167 25.4099 28.9413C31.0104 24.8659 33.3539 17.6457 31.2171 11.0544ZM19.1978 10.9424C20.6797 10.9424 22.1444 10.9424 23.6264 10.9424C23.6264 11.3646 23.6264 11.7868 23.6264 12.2089C22.1531 12.2089 20.6797 12.2089 19.1978 12.2089C19.1978 11.7868 19.1978 11.3732 19.1978 10.9424ZM16.3458 19.6446C15.8633 20.6268 15.0707 21.2127 13.985 21.3936C13.5198 21.4712 13.0545 21.5057 12.5806 21.5057C10.9694 21.5057 9.34961 21.5057 7.72979 21.5057C7.70394 21.5057 7.66948 21.5057 7.63501 21.5057C7.63501 17.8266 7.63501 14.1648 7.63501 10.4943C7.65225 10.4943 7.66948 10.4857 7.68671 10.4857C9.47023 10.4857 11.2538 10.4771 13.0373 10.4943C13.6232 10.4943 14.2004 10.5891 14.7433 10.8304C15.6307 11.2267 16.1391 11.9074 16.2769 12.8638C16.3458 13.3721 16.32 13.8805 16.1477 14.363C15.9667 14.8627 15.6307 15.2159 15.1827 15.4744C15.1137 15.5089 15.0448 15.552 14.9759 15.595C15.0104 15.6123 15.0448 15.6209 15.0707 15.6295C15.9237 15.9742 16.4406 16.6117 16.6043 17.5164C16.7508 18.2488 16.6819 18.9725 16.3458 19.6446ZM25.3496 17.8008C23.4282 17.8008 21.5241 17.8008 19.6027 17.8008C19.6113 17.9214 19.6286 18.0334 19.6372 18.1368C19.663 18.3608 19.7233 18.5762 19.8181 18.7744C20.0766 19.3086 20.516 19.6015 21.0847 19.7135C21.4035 19.7738 21.7309 19.7738 22.0497 19.7135C22.5235 19.6101 22.8682 19.343 23.1008 18.9208C23.1267 18.8778 23.1525 18.8605 23.2042 18.8605C23.859 18.8605 24.5052 18.8605 25.1601 18.8605C25.1859 18.8605 25.2031 18.8605 25.2462 18.8605C25.2204 18.9725 25.2031 19.0759 25.1687 19.1707C25.048 19.567 24.8154 19.9031 24.5397 20.2132C23.9452 20.8853 23.1956 21.2472 22.3168 21.3764C21.6275 21.4798 20.9382 21.4626 20.2575 21.2644C19.551 21.0576 18.9307 20.713 18.4223 20.1788C18.0087 19.748 17.7761 19.2224 17.6555 18.6451C17.4401 17.637 17.4401 16.6204 17.7416 15.6209C18.1811 14.2165 19.1547 13.3893 20.5849 13.1222C21.4724 12.9585 22.3512 13.0361 23.187 13.3807C23.971 13.6995 24.5139 14.2768 24.893 15.0178C25.1342 15.5003 25.2721 16.0172 25.3065 16.5514C25.3324 16.9478 25.3324 17.3355 25.341 17.7318C25.3496 17.7577 25.3496 17.7749 25.3496 17.8008Z" fill="#3863AE"/>
</svg>
