<svg width="16" height="16" viewBox="0 0 16 16" fill="none" xmlns="http://www.w3.org/2000/svg">
<path d="M13.3053 3.08304C13.4435 3.14084 13.5691 3.22709 13.6745 3.33664H13.676C13.8809 3.55037 13.9972 3.83932 13.9999 4.14144C14.0027 4.44357 13.8917 4.73477 13.6908 4.95254L7.79688 12.6319C7.6956 12.7454 7.57344 12.8365 7.43766 12.8997C7.30189 12.9629 7.15529 12.9969 7.00662 12.9998C6.85794 13.0027 6.71024 12.9743 6.57231 12.9164C6.43438 12.8585 6.30906 12.7722 6.20382 12.6627L2.29719 8.58908C2.1016 8.37028 1.99511 8.08088 2.00017 7.78186C2.00523 7.48284 2.12145 7.19754 2.32433 6.98607C2.52721 6.7746 2.80091 6.65347 3.08779 6.64819C3.37466 6.64292 3.65229 6.75391 3.8622 6.95779L6.95237 10.1804L12.08 3.37049C12.1811 3.25656 12.3032 3.16505 12.439 3.10144C12.5748 3.03782 12.7215 3.0034 12.8704 3.00024C13.0192 2.99708 13.1672 3.02524 13.3053 3.08304Z" fill="#FD8B04"/>
</svg>
