<svg width="14" height="14" viewBox="0 0 14 14" fill="none" xmlns="http://www.w3.org/2000/svg">
<path d="M13.9687 0.60006C14.0005 0.520556 14.0083 0.433462 13.9911 0.349573C13.9739 0.265684 13.9324 0.18869 13.8719 0.128137C13.8113 0.0675829 13.7343 0.0261326 13.6504 0.00892413C13.5665 -0.0082843 13.4794 -0.000494002 13.3999 0.0313292L0.671758 5.12278H0.670883L0.275396 5.28027C0.200491 5.31015 0.135301 5.36015 0.0870292 5.42476C0.0387573 5.48936 0.00928147 5.56605 0.00185775 5.64635C-0.00556596 5.72665 0.00935133 5.80745 0.0449618 5.8798C0.0805724 5.95216 0.13549 6.01327 0.203649 6.05637L0.562387 6.28386L0.563262 6.28561L4.93373 9.06627L7.71439 13.4367L7.71614 13.4385L7.94363 13.7972C7.98687 13.8651 8.04801 13.9198 8.12032 13.9552C8.19262 13.9905 8.27328 14.0053 8.35343 13.9978C8.43358 13.9903 8.5101 13.9608 8.57457 13.9126C8.63905 13.8644 8.68897 13.7994 8.71885 13.7246L13.9687 0.60006ZM12.3649 2.25375L5.80783 8.81077L5.61971 8.51504C5.58524 8.46076 5.53924 8.41476 5.48497 8.38029L5.18923 8.19217L11.7462 1.63515L12.777 1.22304L12.3657 2.25375H12.3649Z" fill="white"/>
</svg>
