<svg width="48" height="48" viewBox="0 0 48 48" fill="none" xmlns="http://www.w3.org/2000/svg">
<g clip-path="url(#clip0_656_419)">
<path d="M16.0001 48.0001C20.4162 48.0001 24.0002 44.4161 24.0002 40.0001V32H16.0001C11.5841 32 8 35.5841 8 40.0001C8 44.4161 11.5841 48.0001 16.0001 48.0001Z" fill="#0ACF83"/>
<path d="M8 24.0001C8 19.5841 11.5841 16 16.0001 16H24.0002V31.9999H16.0001C11.5841 32.0001 8 28.4161 8 24.0001Z" fill="#A259FF"/>
<path d="M8 8.00006C8 3.58406 11.5841 0 16.0001 0H24.0002V15.9999H16.0001C11.5841 15.9999 8 12.4161 8 8.00006Z" fill="#F24E1E"/>
<path d="M24 0H32.0001C36.4162 0 40.0002 3.58406 40.0002 8.00006C40.0002 12.4161 36.4162 15.9999 32.0001 15.9999H24V0Z" fill="#FF7262"/>
<path d="M40.0002 24.0001C40.0002 28.4161 36.4162 32.0001 32.0001 32.0001C27.5841 32.0001 24 28.4161 24 24.0001C24 19.5841 27.5841 16 32.0001 16C36.4162 16 40.0002 19.5841 40.0002 24.0001Z" fill="#1ABCFE"/>
</g>
<defs>
<clipPath id="clip0_656_419">
<rect width="48" height="48" fill="white"/>
</clipPath>
</defs>
</svg>
