<svg width="48" height="42" viewBox="0 0 48 42" fill="none" xmlns="http://www.w3.org/2000/svg">
<g clip-path="url(#clip0_3447_349)">
<path fill-rule="evenodd" clip-rule="evenodd" d="M39.6911 9.79027C39.6911 11.1822 38.4015 12.3103 36.8111 12.3103C35.2208 12.3103 33.9311 11.1822 33.9311 9.79027C33.9311 8.39836 35.2208 7.27027 36.8111 7.27027C38.4019 7.27027 39.6911 8.39836 39.6911 9.79027ZM24 27.9999C19.5818 27.9999 16.0001 24.866 16.0001 21C16.0001 17.134 19.5818 14.0001 24 14.0001C28.4182 14.0001 31.9999 17.134 31.9999 21C31.9999 24.866 28.4182 27.9999 24 27.9999ZM24 10.2162C17.1934 10.2162 11.6756 15.0442 11.6756 21C11.6756 26.9558 17.1934 31.7838 24 31.7838C30.8066 31.7838 36.3244 26.9558 36.3244 21C36.3244 15.0442 30.8066 10.2162 24 10.2162ZM24 3.78394C30.4084 3.78394 31.1674 3.80527 33.6979 3.90633C36.0379 3.99984 37.3088 4.34175 38.1544 4.62952C39.2745 5.01047 40.074 5.46558 40.914 6.20058C41.754 6.93525 42.2741 7.63481 42.7095 8.61525C43.038 9.35517 43.4291 10.4672 43.536 12.5147C43.6515 14.7292 43.6759 15.3933 43.6759 21.0007C43.6759 26.608 43.6515 27.2721 43.536 29.4863C43.4291 31.5338 43.0384 32.6458 42.7095 33.3857C42.2741 34.3658 41.754 35.0654 40.914 35.8004C40.0744 36.5354 39.2749 36.9905 38.1544 37.3715C37.3088 37.6589 36.0379 38.0011 33.6979 38.0947C31.1674 38.1957 30.4084 38.217 24 38.217C17.5912 38.217 16.8323 38.1957 14.3018 38.0947C11.9618 38.0011 10.6909 37.6592 9.84525 37.3715C8.72512 36.9905 7.92563 36.5354 7.08563 35.8004C6.246 35.0657 5.7255 34.3662 5.29013 33.3857C4.96163 32.6458 4.5705 31.5338 4.46362 29.4863C4.34812 27.2718 4.32375 26.6077 4.32375 21.0007C4.32375 15.3933 4.34812 14.7292 4.46362 12.5147C4.5705 10.4672 4.96125 9.35517 5.29013 8.61525C5.7255 7.63514 6.24563 6.93558 7.08563 6.20058C7.92525 5.46558 8.72475 5.01047 9.84525 4.62952C10.6909 4.34208 11.9618 3.99984 14.3018 3.90633C16.8326 3.80527 17.5916 3.78394 24 3.78394ZM24 0C17.4821 0 16.6646 0.0242813 14.1049 0.126328C11.5504 0.228375 9.8055 0.583406 8.27925 1.1025C6.70087 1.63898 5.3625 2.35725 4.02825 3.52472C2.694 4.69219 1.87312 5.86327 1.26 7.24434C0.66675 8.58014 0.261 10.1066 0.144375 12.3418C0.02775 14.5815 0 15.2969 0 21C0 26.7031 0.02775 27.4185 0.144375 29.6582C0.261 31.8934 0.66675 33.4199 1.26 34.7557C1.87312 36.1367 2.694 37.3078 4.02825 38.4753C5.3625 39.6428 6.70087 40.3607 8.27925 40.8975C9.80587 41.4166 11.5504 41.7716 14.1049 41.8737C16.6646 41.9757 17.4821 42 24 42C30.5179 42 31.3354 41.9757 33.8951 41.8737C36.4496 41.7716 38.1941 41.4166 39.7207 40.8975C41.2991 40.3607 42.6375 39.6428 43.9718 38.4753C45.306 37.3078 46.1265 36.1367 46.74 34.7557C47.3332 33.4199 47.739 31.8934 47.8556 29.6582C47.9722 27.4185 48 26.7031 48 21C48 15.2969 47.9722 14.5815 47.8556 12.3418C47.739 10.1066 47.3332 8.58014 46.74 7.24434C46.1265 5.86327 45.306 4.69219 43.9718 3.52472C42.6375 2.35725 41.2991 1.63931 39.7207 1.1025C38.1941 0.583406 36.4496 0.228375 33.8951 0.126328C31.3354 0.0242813 30.5179 0 24 0Z" fill="url(#paint0_radial_3447_349)"/>
</g>
<defs>
<radialGradient id="paint0_radial_3447_349" cx="0" cy="0" r="1" gradientUnits="userSpaceOnUse" gradientTransform="translate(7.16666 42.1458) scale(61.332 53.6655)">
<stop stop-color="#FFB140"/>
<stop offset="0.2559" stop-color="#FF5445"/>
<stop offset="0.599" stop-color="#FC2B82"/>
<stop offset="1" stop-color="#8E40B7"/>
</radialGradient>
<clipPath id="clip0_3447_349">
<rect width="48" height="42" fill="white"/>
</clipPath>
</defs>
</svg>
