<svg width="12" height="12" viewBox="0 0 12 12" fill="none" xmlns="http://www.w3.org/2000/svg">
<path fill-rule="evenodd" clip-rule="evenodd" d="M1.41406 0.382645C1.54529 0.251606 1.70286 0.149953 1.87634 0.0844241C2.04982 0.0188949 2.23525 -0.00901466 2.42033 0.00254503C2.60541 0.0141047 2.78593 0.0648696 2.94991 0.151476C3.11389 0.238082 3.25759 0.358551 3.3715 0.504901L4.71771 2.23448C4.96445 2.55174 5.05145 2.96501 4.95395 3.35503L4.54371 4.99761C4.5225 5.08268 4.52365 5.1718 4.54704 5.2563C4.57043 5.3408 4.61527 5.41782 4.67721 5.47988L6.5199 7.32271C6.58202 7.38478 6.65916 7.4297 6.74381 7.4531C6.82845 7.47649 6.9177 7.47757 7.00288 7.45622L8.64458 7.04595C8.83704 6.99783 9.03791 6.99409 9.23202 7.03502C9.42614 7.07595 9.6084 7.16048 9.76505 7.28221L11.4945 8.62777C12.1162 9.11155 12.1732 10.0303 11.6167 10.5861L10.8413 11.3616C10.2863 11.9167 9.45681 12.1604 8.68358 11.8882C6.70453 11.1918 4.90765 10.0587 3.42625 8.57302C1.94076 7.09171 0.807784 5.29496 0.11135 3.31603C-0.160142 2.54349 0.0836006 1.71321 0.638583 1.15818L1.41406 0.382645Z" fill="white"/>
</svg>
