<svg width="48" height="48" viewBox="0 0 48 48" fill="none" xmlns="http://www.w3.org/2000/svg">
<g clip-path="url(#clip0_656_411)">
<path d="M24 48C37.2548 48 48 37.2548 48 24C48 10.7452 37.2548 0 24 0C10.7452 0 0 10.7452 0 24C0 37.2548 10.7452 48 24 48Z" fill="#FF4500"/>
<path d="M39.9995 24.0001C39.9995 22.0632 38.4276 20.4913 36.4908 20.4913C35.5364 20.4913 34.6943 20.8562 34.0767 21.4738C31.6908 19.7615 28.3785 18.6387 24.7293 18.4983L26.3293 11.0036L31.5223 12.0983C31.5785 13.4176 32.6732 14.4843 34.0206 14.4843C35.396 14.4843 36.5188 13.3615 36.5188 11.986C36.5188 10.6106 35.396 9.48779 34.0206 9.48779C33.0381 9.48779 32.196 10.0492 31.803 10.8913L25.9925 9.65622C25.8241 9.62815 25.6557 9.65621 25.5153 9.74042C25.375 9.82464 25.2908 9.96499 25.2346 10.1334L23.4662 18.4983C19.7329 18.6106 16.3925 19.7053 13.9785 21.4738C13.3609 20.8843 12.4908 20.4913 11.5644 20.4913C9.62759 20.4913 8.05566 22.0632 8.05566 24.0001C8.05566 25.4317 8.89777 26.6387 10.1329 27.2001C10.0767 27.5369 10.0486 27.9018 10.0486 28.2667C10.0486 33.6562 16.3083 38.0071 24.0557 38.0071C31.803 38.0071 38.0627 33.6562 38.0627 28.2667C38.0627 27.9018 38.0346 27.565 37.9785 27.2281C39.1293 26.6667 39.9995 25.4317 39.9995 24.0001ZM15.9995 26.4983C15.9995 25.1229 17.1223 24.0001 18.4978 24.0001C19.8732 24.0001 20.996 25.1229 20.996 26.4983C20.996 27.8738 19.8732 28.9966 18.4978 28.9966C17.1223 28.9966 15.9995 27.8738 15.9995 26.4983ZM29.9504 33.0948C28.2381 34.8071 24.982 34.9194 24.0276 34.9194C23.0732 34.9194 19.789 34.779 18.1048 33.0948C17.8522 32.8422 17.8522 32.4211 18.1048 32.1685C18.3574 31.9159 18.7785 31.9159 19.0311 32.1685C20.0978 33.2352 22.3995 33.6281 24.0557 33.6281C25.7118 33.6281 27.9855 33.2352 29.0802 32.1685C29.3329 31.9159 29.7539 31.9159 30.0065 32.1685C30.203 32.4492 30.203 32.8422 29.9504 33.0948ZM29.5013 28.9966C28.1258 28.9966 27.003 27.8738 27.003 26.4983C27.003 25.1229 28.1258 24.0001 29.5013 24.0001C30.8767 24.0001 31.9995 25.1229 31.9995 26.4983C31.9995 27.8738 30.8767 28.9966 29.5013 28.9966Z" fill="white"/>
</g>
<defs>
<clipPath id="clip0_656_411">
<rect width="48" height="48" fill="white"/>
</clipPath>
</defs>
</svg>
