<svg width="20" height="20" viewBox="0 0 20 20" fill="none" xmlns="http://www.w3.org/2000/svg">
<path d="M15.2695 11.6602C15.2695 11.6602 15.2695 11.6641 15.2734 11.6641C15.6328 12.4219 15.8359 13.2695 15.8359 14.1641C15.832 17.3867 13.2227 20 10 20C6.77734 20 4.16797 17.3867 4.16797 14.168C4.16797 13.2734 4.37109 12.4258 4.73047 11.668C4.79687 11.5273 4.87109 11.3867 4.94922 11.25C5.12109 10.9531 5.31641 10.6758 5.53516 10.418C6.60547 9.14453 8.21094 8.33594 10.0039 8.33594C11.3164 8.33594 12.5273 8.76953 13.5039 9.50391C13.8594 9.77344 14.1836 10.0781 14.4727 10.4219C14.6914 10.6797 14.8867 10.9609 15.0586 11.2539C15.1367 11.3867 15.207 11.5273 15.2734 11.6641L15.2695 11.6602ZM16.3008 10.9258C15.125 8.64453 12.7461 7.08203 10 7.08203C7.25391 7.08203 4.875 8.64453 3.69922 10.9258L0 7.91797L10 0L20 7.91797L16.3008 10.9297V10.9258Z" fill="#898989"/>
</svg>
