<svg width="32" height="32" viewBox="0 0 32 32" fill="none" xmlns="http://www.w3.org/2000/svg">
<g clip-path="url(#clip0_3446_597)">
<path fill-rule="evenodd" clip-rule="evenodd" d="M30.5738 18.6117C30.6986 17.8273 30.7699 17.0251 30.7699 16.205C30.7699 7.93315 24.0847 1.24791 15.8306 1.24791C15.0106 1.24791 14.2084 1.31922 13.424 1.44401C12.0513 0.534819 10.4111 0 8.64624 0C3.86852 0 0 3.86852 0 8.64624C0 10.2507 0.445682 11.766 1.21226 13.0674C0.998329 14.0657 0.891365 15.1175 0.891365 16.1872C0.891365 24.4412 7.5766 31.1265 15.8306 31.1265C16.9003 31.1265 17.9521 31.0195 18.9682 30.8056C20.2518 31.5543 21.7493 32 23.3538 32C28.1315 32 32 28.1315 32 23.3538C32 21.6067 31.483 19.9666 30.5738 18.6117ZM20.3766 24.7443C18.2908 25.6891 15.2067 25.707 13.0496 25.19C10.0011 24.4591 8.62841 22.712 8.37883 21.3214C7.98663 19.1643 10.4468 18.4156 11.7304 19.9131C12.0334 20.2518 12.3008 20.6084 12.5861 20.9649C14.2797 22.9616 17.8986 22.7655 19.0574 21.161C19.5209 20.5192 19.5209 19.6457 19.0396 19.0217C18.5047 18.3443 17.8986 18.3443 12.7287 17.0251C7.73705 15.7593 7.80836 11.3025 9.27019 9.1454C10.4468 7.3805 12.7287 6.66741 14.868 6.50696C18.5226 6.22173 22.5515 7.9688 22.9081 10.3398C23.0685 11.3203 22.5515 12.0691 21.571 12.3008C20.1805 12.6217 19.717 11.7304 18.9504 10.9281C17.3638 9.25237 14.2975 9.39499 13.1922 10.322C12.3543 11.0173 12.2295 12.2117 13.0318 12.8713C14.3153 13.9053 18.5404 14.1905 20.5905 15.0997C22.712 16.0267 23.7103 17.7025 23.6925 19.6992C23.6747 22.088 22.5337 23.7638 20.3766 24.7443Z" fill="#1998D2"/>
</g>
<defs>
<clipPath id="clip0_3446_597">
<rect width="32" height="32" fill="white"/>
</clipPath>
</defs>
</svg>
