<svg width="48" height="48" viewBox="0 0 48 48" fill="none" xmlns="http://www.w3.org/2000/svg">
<path d="M44.5949 35.3593C37.1618 31.76 35.9771 26.2028 35.9244 25.7906C35.8606 25.2914 35.7882 24.8988 36.3389 24.3909C36.8699 23.9002 39.2258 22.4416 39.8794 21.9853C40.9599 21.2296 41.4357 20.4751 41.085 19.5477C40.8397 18.9061 40.2425 18.6645 39.6133 18.6645C39.4149 18.6651 39.2171 18.6873 39.0234 18.7307C37.8363 18.9883 36.6835 19.5833 36.0163 19.744C35.9362 19.7647 35.8538 19.7758 35.7711 19.7771C35.4154 19.7771 35.2805 19.6189 35.3148 19.1907C35.3982 17.8928 35.5748 15.3596 35.37 12.9932C35.0892 9.73739 34.0394 8.12422 32.7946 6.69751C32.1925 6.00562 29.3963 3.0332 24.0002 3.0332C18.6041 3.0332 15.8117 6.00562 15.2132 6.68892C13.9647 8.11563 12.9162 9.72881 12.6378 12.9846C12.433 15.351 12.6169 17.883 12.693 19.1821C12.7175 19.5894 12.5924 19.7685 12.2367 19.7685C12.154 19.7671 12.0717 19.756 11.9915 19.7354C11.3255 19.5747 10.1727 18.9797 8.9856 18.7221C8.79196 18.6787 8.59416 18.6565 8.39571 18.6559C7.76413 18.6559 7.16933 18.9012 6.92405 19.5391C6.57331 20.4666 7.04669 21.221 8.13081 21.9767C8.78448 22.433 11.1404 23.8904 11.6714 24.3823C12.2208 24.8902 12.1497 25.2828 12.0859 25.7821C12.0332 26.2004 10.8473 31.7576 3.41537 35.3507C2.98 35.5617 2.23927 36.0083 3.54537 36.7296C5.59588 37.8631 6.96084 37.7416 8.02167 38.4249C8.92183 39.0052 8.38958 40.2565 9.04447 40.7079C9.84898 41.2636 12.2269 40.6687 15.299 41.6832C17.8744 42.5321 19.4393 44.9304 24.0064 44.9304C28.5734 44.9304 30.1836 42.5211 32.7137 41.6832C35.7796 40.6687 38.1625 41.2636 38.9682 40.7079C39.6219 40.2565 39.0909 39.0052 39.991 38.4249C41.0519 37.7416 42.4156 37.8631 44.4673 36.7296C45.771 36.0168 45.0303 35.5703 44.5949 35.3593Z" fill="white"/>
<path d="M47.8284 34.9371C47.4948 34.0293 46.8596 33.5435 46.136 33.1411C45.9999 33.0614 45.8748 32.9976 45.7681 32.9485C45.5522 32.8369 45.3315 32.7289 45.112 32.6149C42.8566 31.4188 41.0956 29.9099 39.8741 28.1213C39.5272 27.6177 39.2263 27.084 38.9751 26.5265C38.8709 26.2284 38.8758 26.0591 38.9506 25.9045C39.0248 25.7854 39.123 25.6831 39.2388 25.604C39.6263 25.3476 40.0261 25.0875 40.2972 24.9121C40.7804 24.5993 41.163 24.3515 41.4095 24.176C42.3354 23.5283 42.983 22.8401 43.3877 22.0709C43.67 21.5395 43.8347 20.9535 43.8705 20.3528C43.9062 19.752 43.8122 19.1506 43.5949 18.5894C42.9817 16.975 41.4573 15.9728 39.6104 15.9728C39.2208 15.9724 38.8323 16.0135 38.4515 16.0954C38.3497 16.1175 38.2479 16.1408 38.1485 16.1666C38.1657 15.0625 38.1412 13.8971 38.0431 12.7501C37.6948 8.71776 36.2832 6.60407 34.8116 4.91852C33.8691 3.86227 32.7591 2.96867 31.5261 2.27364C29.2928 0.997822 26.7603 0.350098 23.9998 0.350098C21.2392 0.350098 18.719 0.997822 16.4833 2.27364C15.2472 2.96888 14.1349 3.86428 13.1916 4.92342C11.72 6.60898 10.3084 8.72635 9.96012 12.755C9.86201 13.902 9.83748 15.0736 9.85342 16.1715C9.75408 16.1457 9.65352 16.1224 9.55173 16.1003C9.17087 16.0184 8.78237 15.9773 8.3928 15.9777C6.54464 15.9777 5.01779 16.9799 4.40705 18.5943C4.18875 19.1558 4.09383 19.7576 4.12875 20.359C4.16366 20.9604 4.3276 21.5472 4.6094 22.0795C5.01534 22.8487 5.66287 23.5369 6.58879 24.1846C6.83406 24.3564 7.21792 24.6042 7.70112 24.9207C7.96234 25.09 8.34374 25.3378 8.71779 25.5856C8.84866 25.6702 8.95989 25.7819 9.04401 25.9131C9.1225 26.0738 9.12495 26.2468 9.00844 26.5658C8.76064 27.1115 8.46473 27.6341 8.12422 28.1274C6.92972 29.8755 5.22014 31.3574 3.03718 32.5437C1.8807 33.1571 0.678844 33.5668 0.171121 34.9469C-0.21151 35.9884 0.0386716 37.1735 1.01119 38.172C1.36812 38.5447 1.7821 38.8582 2.23758 39.1007C3.18532 39.6217 4.19309 40.025 5.23854 40.3017C5.45428 40.3573 5.6591 40.449 5.84437 40.5728C6.1988 40.8832 6.14852 41.3505 6.62067 42.0351C6.85769 42.3889 7.15885 42.6951 7.50858 42.938C8.49949 43.6225 9.61305 43.6654 10.7928 43.7108C11.8586 43.7513 13.0665 43.7979 14.4462 44.253C15.0177 44.442 15.6113 44.8075 16.2993 45.2344C17.9512 46.2502 20.2127 47.6401 23.9973 47.6401C27.7819 47.6401 30.0593 46.2428 31.7235 45.2234C32.4066 44.8039 32.9965 44.442 33.5521 44.2579C34.9317 43.8016 36.1397 43.7562 37.2055 43.7157C38.3852 43.6703 39.4988 43.6274 40.4897 42.9429C40.9039 42.654 41.249 42.2769 41.5003 41.8388C41.84 41.261 41.8314 40.8574 42.1502 40.5752C42.3241 40.4574 42.5164 40.3694 42.7193 40.3152C43.779 40.0376 44.8005 39.6306 45.7607 39.1031C46.2446 38.8435 46.6802 38.5023 47.0484 38.0948L47.0607 38.08C47.9731 37.1035 48.2024 35.9529 47.8284 34.9371ZM44.4644 36.7453C42.4127 37.8788 41.0489 37.7574 39.9881 38.4407C39.0867 39.021 39.6202 40.2722 38.9653 40.7237C38.1608 41.2794 35.7829 40.6844 32.7108 41.699C30.1771 42.5368 28.5607 44.9462 24.0034 44.9462C19.4462 44.9462 17.8678 42.5417 15.2924 41.6928C12.2265 40.6783 9.84361 41.2733 9.03788 40.7175C8.38421 40.2661 8.91524 39.0148 8.01507 38.4346C6.95302 37.7513 5.58929 37.8727 3.53877 36.7453C2.23267 36.024 2.97341 35.5775 3.40877 35.3665C10.8407 31.7672 12.0266 26.21 12.0793 25.7978C12.1431 25.2985 12.2142 24.906 11.6648 24.3981C11.1338 23.9074 8.77788 22.4488 8.12422 21.9924C7.04255 21.2368 6.56671 20.4823 6.91746 19.5549C7.16274 18.9133 7.76121 18.6716 8.38912 18.6716C8.58757 18.6722 8.78536 18.6944 8.97901 18.7379C10.1661 18.9955 11.319 19.5905 11.9849 19.7512C12.0651 19.7717 12.1474 19.7829 12.2302 19.7843C12.5858 19.7843 12.7109 19.6052 12.6864 19.1979C12.6103 17.8988 12.4264 15.3668 12.6312 13.0003C12.912 9.74455 13.9606 8.13138 15.2066 6.70467C15.8051 6.01891 18.6172 3.0465 23.9949 3.0465C29.3725 3.0465 32.192 6.00664 32.7905 6.68994C34.0377 8.11665 35.0875 9.72983 35.3659 12.9856C35.5707 15.352 35.3941 17.8853 35.3107 19.1832C35.2825 19.6113 35.4113 19.7696 35.7669 19.7696C35.8497 19.7682 35.932 19.7571 36.0122 19.7364C36.6793 19.5757 37.8321 18.9808 39.0193 18.7231C39.2129 18.6797 39.4107 18.6575 39.6092 18.6569C40.2408 18.6569 40.8356 18.9022 41.0808 19.5402C41.4316 20.4676 40.9582 21.222 39.8753 21.9777C39.2216 22.4341 36.8658 23.8914 36.3347 24.3834C35.7841 24.8912 35.8564 25.2838 35.9202 25.7831C35.9729 26.2014 37.1576 31.7586 44.5907 35.3517C45.0298 35.5713 45.7705 36.0179 44.4644 36.7453Z" fill="black"/>
</svg>
