<svg width="229" height="319" viewBox="0 0 229 319" fill="none" xmlns="http://www.w3.org/2000/svg">
<path d="M111.982 0C113.691 0 115.354 0 117.062 0C121.634 1.29299 125.79 3.14013 128.745 7.15764C131.1 10.3439 132.209 13.8997 132.439 18.0096C133.409 18.0096 134.24 18.0096 135.072 18.0096C141.306 18.0096 147.54 18.0096 153.774 18.0096C154.697 18.0096 155.621 18.0557 156.498 18.2866C160.932 19.5334 163.518 23.1354 163.61 28.1688C163.656 30.293 163.61 32.4172 163.61 34.6338C164.949 34.6338 165.873 34.6338 166.75 34.6338C183.236 34.5876 199.675 34.5414 216.161 34.5414C217.592 34.5414 219.116 34.5414 220.502 34.9108C226.32 36.4809 228.998 40.4984 228.998 47.4713C228.998 133.686 228.998 219.855 228.998 306.07C228.998 307.594 228.952 309.164 228.583 310.642C227.336 315.906 222.811 319 216.576 319C148.694 319 80.8121 319 12.9299 319C4.29459 319 0 314.752 0 306.116C0 219.855 0 133.548 0 47.2866C0 45.6704 0.0923567 44.008 0.55414 42.5303C2.07803 37.4045 6.1879 34.4952 11.8678 34.4952C28.7229 34.4952 45.578 34.5414 62.4331 34.5876C63.3105 34.5876 64.2341 34.5876 65.2962 34.5876C65.2962 32.0478 65.25 29.8312 65.2962 27.6146C65.4347 21.9347 69.4522 17.9634 75.1322 17.9172C78.5032 17.9172 81.9204 17.9172 85.2914 17.9172C88.9857 17.9172 92.6338 17.9172 95.9586 17.9172C96.836 15.0541 97.2978 12.3758 98.4061 10.0207C101.177 4.4793 105.979 1.43153 111.982 0ZM114.476 254.951C147.401 254.951 180.373 254.951 213.298 254.951C218.1 254.951 220.502 252.642 220.502 248.024C220.502 182.081 220.502 116.139 220.502 50.1497C220.502 49.3185 220.455 48.4411 220.225 47.656C219.209 44.3312 217.177 43.1306 212.605 43.1306C178.987 43.1306 145.369 43.1306 111.705 43.1306C79.9347 43.1306 48.164 43.1306 16.3471 43.1306C10.7134 43.1306 8.58917 45.301 8.58917 50.9809C8.58917 116.416 8.58917 181.804 8.58917 247.239C8.58917 252.965 10.621 254.951 16.3933 254.951C49.0876 254.951 81.7818 254.951 114.476 254.951ZM106.395 18.0096C106.395 22.7659 109.951 26.3678 114.615 26.3217C119.186 26.2755 122.742 22.7197 122.788 18.1019C122.834 13.4841 119.094 9.69745 114.522 9.74363C109.997 9.78981 106.395 13.4379 106.395 18.0096Z" fill="black"/>
<path d="M41.2641 294.96C41.2641 294.255 41.1513 293.634 40.9258 293.095C40.7145 292.542 40.334 292.045 39.7843 291.603C39.2488 291.161 38.5019 290.74 37.5436 290.339C36.5994 289.938 35.4015 289.531 33.95 289.116C32.428 288.674 31.0539 288.184 29.8279 287.645C28.6018 287.092 27.5519 286.464 26.6782 285.759C25.8044 285.055 25.135 284.247 24.67 283.335C24.2049 282.423 23.9724 281.38 23.9724 280.206C23.9724 279.032 24.219 277.947 24.7123 276.953C25.2055 275.958 25.9101 275.094 26.8262 274.362C27.7563 273.616 28.8625 273.036 30.145 272.622C31.4274 272.207 32.8578 272 34.4362 272C36.7474 272 38.7062 272.435 40.3128 273.305C41.9335 274.162 43.1666 275.288 44.0121 276.683C44.8577 278.065 45.2805 279.543 45.2805 281.118H41.2218C41.2218 279.985 40.9752 278.983 40.4819 278.113C39.9887 277.229 39.2418 276.538 38.2412 276.041C37.2406 275.53 35.9723 275.274 34.4362 275.274C32.9846 275.274 31.7868 275.488 30.8426 275.916C29.8983 276.345 29.1937 276.925 28.7287 277.657C28.2777 278.389 28.0522 279.225 28.0522 280.164C28.0522 280.8 28.1861 281.38 28.4539 281.905C28.7357 282.416 29.1655 282.893 29.7433 283.335C30.3352 283.777 31.0821 284.184 31.9841 284.557C32.9001 284.93 33.9923 285.29 35.2606 285.635C37.0081 286.119 38.516 286.657 39.7843 287.251C41.0527 287.845 42.0955 288.515 42.9129 289.261C43.7444 289.994 44.3574 290.829 44.752 291.769C45.1607 292.694 45.365 293.744 45.365 294.918C45.365 296.148 45.1114 297.26 44.604 298.255C44.0967 299.249 43.3709 300.099 42.4267 300.803C41.4825 301.508 40.348 302.054 39.0233 302.441C37.7127 302.814 36.2471 303 34.6264 303C33.2031 303 31.8009 302.807 30.4198 302.42C29.0528 302.033 27.8056 301.453 26.6782 300.679C25.5649 299.906 24.67 298.952 23.9935 297.82C23.3312 296.673 23 295.347 23 293.841H27.0587C27.0587 294.877 27.263 295.768 27.6717 296.514C28.0804 297.246 28.6371 297.854 29.3417 298.338C30.0604 298.821 30.8707 299.18 31.7727 299.415C32.6887 299.636 33.6399 299.747 34.6264 299.747C36.0498 299.747 37.2547 299.553 38.2412 299.166C39.2277 298.78 39.9746 298.227 40.4819 297.509C41.0033 296.79 41.2641 295.941 41.2641 294.96Z" fill="white"/>
<path d="M69.1464 292.991H73.205C72.9936 294.898 72.437 296.604 71.5351 298.11C70.6331 299.615 69.3577 300.81 67.7089 301.695C66.0601 302.565 64.0025 303 61.5363 303C59.7325 303 58.0907 302.668 56.611 302.005C55.1453 301.342 53.884 300.403 52.8271 299.187C51.7701 297.958 50.9528 296.486 50.375 294.773C49.8113 293.047 49.5294 291.126 49.5294 289.013V286.008C49.5294 283.894 49.8113 281.981 50.375 280.268C50.9528 278.541 51.7772 277.063 52.8482 275.834C53.9333 274.604 55.2369 273.658 56.7589 272.995C58.2809 272.332 59.9932 272 61.8957 272C64.221 272 66.1869 272.428 67.7935 273.285C69.4 274.141 70.6472 275.329 71.5351 276.849C72.437 278.355 72.9936 280.102 73.205 282.092H69.1464C68.9491 280.682 68.5826 279.474 68.0471 278.465C67.5116 277.443 66.7506 276.656 65.7641 276.103C64.7776 275.55 63.4882 275.274 61.8957 275.274C60.5287 275.274 59.3238 275.53 58.2809 276.041C57.2522 276.552 56.3855 277.277 55.6808 278.217C54.9903 279.156 54.4689 280.282 54.1166 281.594C53.7642 282.907 53.5881 284.364 53.5881 285.967V289.013C53.5881 290.491 53.7431 291.879 54.0531 293.178C54.3773 294.476 54.8635 295.616 55.5117 296.597C56.16 297.578 56.9844 298.351 57.985 298.918C58.9856 299.47 60.1693 299.747 61.5363 299.747C63.2697 299.747 64.6508 299.477 65.6796 298.939C66.7083 298.4 67.4834 297.626 68.0049 296.618C68.5404 295.609 68.9209 294.4 69.1464 292.991Z" fill="white"/>
<path d="M90.1585 275.088L79.9695 302.586H75.8051L87.5373 272.414H90.2219L90.1585 275.088ZM98.6986 302.586L88.4885 275.088L88.4251 272.414H91.1097L102.884 302.586H98.6986ZM98.1702 291.416V294.691H80.8785V291.416H98.1702Z" fill="white"/>
<path d="M130.682 272.414V302.586H126.581L111.086 279.315V302.586H107.006V272.414H111.086L126.644 295.747V272.414H130.682Z" fill="white"/>
<path d="M149.939 272.414H153.892L163.976 297.011L174.038 272.414H178.012L165.498 302.586H162.411L149.939 272.414ZM148.65 272.414H152.138L152.709 290.816V302.586H148.65V272.414ZM175.792 272.414H179.28V302.586H175.222V290.816L175.792 272.414Z" fill="white"/>
<path d="M206 299.332V302.586H189.702V299.332H206ZM190.526 272.414V302.586H186.446V272.414H190.526ZM203.844 285.386V288.64H189.702V285.386H203.844ZM205.789 272.414V275.689H189.702V272.414H205.789Z" fill="white"/>
</svg>
